<svg xmlns="http://www.w3.org/2000/svg" viewBox="0 0 400 400">
  <!-- 扁平插画·女性肖像2（银发55+，代码绘制可改色） -->
  <rect width="400" height="400" fill="#FFD84D"/>
  <circle cx="74" cy="84" r="22" fill="#fff" opacity=".8"/>
  <path d="M310 70 l10 22 22 4 -16 16 4 22 -20 -10 -20 10 4 -22 -16 -16 22 -4z" fill="#C8102E" opacity=".85"/>
  <path d="M84 400 q6 -84 116 -84 q110 0 116 84 Z" fill="#274472"/>
  <rect x="178" y="266" width="44" height="54" rx="20" fill="#E6B894"/>
  <path d="M112 200 q-10 -124 88 -124 q98 0 88 124 q-4 70 -26 88 l-124 0 q-22 -18 -26 -88z" fill="#E9E4DC"/>
  <ellipse cx="200" cy="188" rx="64" ry="72" fill="#F0C29C"/>
  <path d="M138 166 q-2 -78 62 -78 q64 0 62 78 q-30 -26 -62 -26 q-32 0 -62 26z" fill="#E9E4DC"/>
  <circle cx="134" cy="196" r="12" fill="#E6B894"/><circle cx="266" cy="196" r="12" fill="#E6B894"/>
  <circle cx="166" cy="194" r="24" fill="rgba(255,255,255,.5)" stroke="#8A5A2B" stroke-width="6"/>
  <circle cx="234" cy="194" r="24" fill="rgba(255,255,255,.5)" stroke="#8A5A2B" stroke-width="6"/>
  <path d="M190 190 q10 -10 20 0" stroke="#8A5A2B" stroke-width="6" fill="none"/>
  <circle cx="166" cy="196" r="5" fill="#17181C"/><circle cx="234" cy="196" r="5" fill="#17181C"/>
  <path d="M150 164 q16 -8 32 -2M218 162 q16 -6 32 2" stroke="#BFB7AA" stroke-width="5" fill="none" stroke-linecap="round"/>
  <path d="M198 208 q4 8 -2 14" stroke="#D9A074" stroke-width="4" fill="none" stroke-linecap="round"/>
  <path d="M176 238 q24 16 48 0" stroke="#A8554A" stroke-width="7" fill="none" stroke-linecap="round"/>
  <path d="M146 250 q-6 8 -2 16M254 250 q6 8 2 16" stroke="#E0B795" stroke-width="4" fill="none" stroke-linecap="round"/>
</svg>
